<svg width="570" height="220" xmlns="http://www.w3.org/2000/svg" xmlns:xlink="http://www.w3.org/1999/xlink" version="1.1" baseProfile="full" viewBox="0 0 570 220">
<rect width="570" height="220" x="0" y="0" fill="#FFFFFF"></rect>
<path d="M100.5 40L100.5 195" fill="transparent" stroke="#E0E6F1" class="zr0-cls-0"></path>
<path d="M186.5 40L186.5 195" fill="transparent" stroke="#E0E6F1" class="zr0-cls-0"></path>
<path d="M272.5 40L272.5 195" fill="transparent" stroke="#E0E6F1" class="zr0-cls-0"></path>
<path d="M358.5 40L358.5 195" fill="transparent" stroke="#E0E6F1" class="zr0-cls-0"></path>
<path d="M444.5 40L444.5 195" fill="transparent" stroke="#E0E6F1" class="zr0-cls-0"></path>
<path d="M530.5 40L530.5 195" fill="transparent" stroke="#E0E6F1" class="zr0-cls-0"></path>
<path d="M100.5 195L100.5 40" fill="transparent" stroke="#6E7079" stroke-linecap="round" class="zr0-cls-0"></path>
<path d="M100 195.5L95 195.5" fill="transparent" stroke="#6E7079" class="zr0-cls-0"></path>
<path d="M100 156.5L95 156.5" fill="transparent" stroke="#6E7079" class="zr0-cls-0"></path>
<path d="M100 117.5L95 117.5" fill="transparent" stroke="#6E7079" class="zr0-cls-0"></path>
<path d="M100 79.5L95 79.5" fill="transparent" stroke="#6E7079" class="zr0-cls-0"></path>
<path d="M100 40.5L95 40.5" fill="transparent" stroke="#6E7079" class="zr0-cls-0"></path>
<text dominant-baseline="central" text-anchor="end" style="font-size:13px;font-family:sans-serif;font-weight:bolder;" transform="translate(92 175.625)" fill="#666666">chute::spmc</text>
<text dominant-baseline="central" text-anchor="end" style="font-size:13px;font-family:sans-serif;font-weight:bolder;" transform="translate(92 136.875)" fill="#666666">chute::mpmc</text>
<text dominant-baseline="central" text-anchor="end" style="font-size:13px;font-family:sans-serif;font-weight:bolder;" y="-6.5" transform="translate(92 98.125)" fill="#666666">crossbeam::</text>
<text dominant-baseline="central" text-anchor="end" style="font-size:13px;font-family:sans-serif;font-weight:bolder;" y="6.5" transform="translate(92 98.125)" fill="#666666">unbounded</text>
<text dominant-baseline="central" text-anchor="end" style="font-size:13px;font-family:sans-serif;font-weight:bolder;" y="-6.5" transform="translate(92 59.375)" fill="#666666">flume::</text>
<text dominant-baseline="central" text-anchor="end" style="font-size:13px;font-family:sans-serif;font-weight:bolder;" y="6.5" transform="translate(92 59.375)" fill="#666666">unbounded</text>
<text dominant-baseline="central" text-anchor="middle" style="font-size:12px;font-family:sans-serif;" y="6" transform="translate(100 203)" fill="#6E7079">0ms</text>
<text dominant-baseline="central" text-anchor="middle" style="font-size:12px;font-family:sans-serif;" y="6" transform="translate(186 203)" fill="#6E7079">2ms</text>
<text dominant-baseline="central" text-anchor="middle" style="font-size:12px;font-family:sans-serif;" y="6" transform="translate(272 203)" fill="#6E7079">4ms</text>
<text dominant-baseline="central" text-anchor="middle" style="font-size:12px;font-family:sans-serif;" y="6" transform="translate(358 203)" fill="#6E7079">6ms</text>
<text dominant-baseline="central" text-anchor="middle" style="font-size:12px;font-family:sans-serif;" y="6" transform="translate(444 203)" fill="#6E7079">8ms</text>
<text dominant-baseline="central" text-anchor="middle" style="font-size:12px;font-family:sans-serif;" y="6" transform="translate(530 203)" fill="#6E7079">10ms</text>
<path d="M100 163.6l41.1 0l0 24l-41.1 0Z" fill="#5470c6" ecmeta_series_index="0" ecmeta_data_index="0" ecmeta_ssr_type="chart" class="zr0-cls-1"></path>
<path d="M100 124.9l135.7 0l0 24l-135.7 0Z" fill="#5470c6" ecmeta_series_index="0" ecmeta_data_index="1" ecmeta_ssr_type="chart" class="zr0-cls-1"></path>
<path d="M100 86.1l361.5 0l0 24l-361.5 0Z" fill="#5470c6" ecmeta_series_index="0" ecmeta_data_index="2" ecmeta_ssr_type="chart" class="zr0-cls-1"></path>
<path d="M100 47.4l336 0l0 24l-336 0Z" fill="#5470c6" ecmeta_series_index="0" ecmeta_data_index="3" ecmeta_ssr_type="chart" class="zr0-cls-1"></path>
<text dominant-baseline="central" text-anchor="end" style="font-size:12px;font-family:sans-serif;font-weight:bold;" transform="translate(136.0544 175.625)" fill="#eee" stroke="#5470c6" stroke-width="2" paint-order="stroke" stroke-miterlimit="2">0.95</text>
<text dominant-baseline="central" text-anchor="end" style="font-size:12px;font-family:sans-serif;font-weight:bold;" transform="translate(230.6552 136.875)" fill="#eee" stroke="#5470c6" stroke-width="2" paint-order="stroke" stroke-miterlimit="2">3.15</text>
<text dominant-baseline="central" text-anchor="end" style="font-size:12px;font-family:sans-serif;font-weight:bold;" transform="translate(456.5203 98.125)" fill="#eee" stroke="#5470c6" stroke-width="2" paint-order="stroke" stroke-miterlimit="2">8.41</text>
<text dominant-baseline="central" text-anchor="end" style="font-size:12px;font-family:sans-serif;font-weight:bold;" transform="translate(431.0407 59.375)" fill="#eee" stroke="#5470c6" stroke-width="2" paint-order="stroke" stroke-miterlimit="2">7.81</text>
<path d="M-5 -5l10 0l0 10l-10 0Z" transform="translate(285 215)" fill="rgb(0,0,0)" fill-opacity="0" stroke="#ccc" stroke-width="0" class="zr0-cls-0"></path>
<path d="M-19.6 -5l39.2 0l0 28l-39.2 0Z" transform="translate(285 5)" fill="rgb(0,0,0)" fill-opacity="0" stroke="#ccc" stroke-width="0" class="zr0-cls-0"></path>
<text dominant-baseline="central" text-anchor="middle" style="font-size:18px;font-family:sans-serif;font-weight:bold;" y="9" transform="translate(285 5)" fill="#464646">seq</text>
<style ><![CDATA[
.zr0-cls-0:hover {
pointer-events:none;
}
.zr0-cls-1:hover {
cursor:pointer;
fill:rgba(92,123,217,1);
}

]]>

</style>
</svg>