<svg width="600" height="240" xmlns="http://www.w3.org/2000/svg" xmlns:xlink="http://www.w3.org/1999/xlink" version="1.1" baseProfile="full" viewBox="0 0 600 240">
<rect width="600" height="240" x="0" y="0" id="0" fill="#FFFFFF"></rect>
<path d="M100.5 60L100.5 170" fill="none" stroke="#E0E6F1"></path>
<path d="M173.5 60L173.5 170" fill="none" stroke="#E0E6F1"></path>
<path d="M246.5 60L246.5 170" fill="none" stroke="#E0E6F1"></path>
<path d="M320.5 60L320.5 170" fill="none" stroke="#E0E6F1"></path>
<path d="M393.5 60L393.5 170" fill="none" stroke="#E0E6F1"></path>
<path d="M466.5 60L466.5 170" fill="none" stroke="#E0E6F1"></path>
<path d="M540.5 60L540.5 170" fill="none" stroke="#E0E6F1"></path>
<path d="M100.5 170L100.5 60" fill="none" stroke="#6E7079" stroke-linecap="round"></path>
<path d="M100 170.5L95 170.5" fill="none" stroke="#6E7079"></path>
<path d="M100 133.5L95 133.5" fill="none" stroke="#6E7079"></path>
<path d="M100 96.5L95 96.5" fill="none" stroke="#6E7079"></path>
<path d="M100 60.5L95 60.5" fill="none" stroke="#6E7079"></path>
<text dominant-baseline="central" text-anchor="end" style="font-size:14px;font-family:sans-serif;" transform="translate(92 151.6667)" fill="#6E7079">chute::spmc</text>
<text dominant-baseline="central" text-anchor="end" style="font-size:14px;font-family:sans-serif;" transform="translate(92 115)" fill="#6E7079">chute::mpmc</text>
<text dominant-baseline="central" text-anchor="end" style="font-size:14px;font-family:sans-serif;" y="-7" transform="translate(92 78.3333)" fill="#6E7079">crossbeam</text>
<text dominant-baseline="central" text-anchor="end" style="font-size:14px;font-family:sans-serif;" y="7" transform="translate(92 78.3333)" fill="#6E7079">(unbounded)</text>
<text dominant-baseline="central" text-anchor="middle" style="font-size:12px;font-family:sans-serif;" y="6" transform="translate(100 178)" fill="#6E7079">0ms</text>
<text dominant-baseline="central" text-anchor="middle" style="font-size:12px;font-family:sans-serif;" y="6" transform="translate(173.3333 178)" fill="#6E7079">2ms</text>
<text dominant-baseline="central" text-anchor="middle" style="font-size:12px;font-family:sans-serif;" y="6" transform="translate(246.6667 178)" fill="#6E7079">4ms</text>
<text dominant-baseline="central" text-anchor="middle" style="font-size:12px;font-family:sans-serif;" y="6" transform="translate(320 178)" fill="#6E7079">6ms</text>
<text dominant-baseline="central" text-anchor="middle" style="font-size:12px;font-family:sans-serif;" y="6" transform="translate(393.3333 178)" fill="#6E7079">8ms</text>
<text dominant-baseline="central" text-anchor="middle" style="font-size:12px;font-family:sans-serif;" y="6" transform="translate(466.6667 178)" fill="#6E7079">10ms</text>
<text dominant-baseline="central" text-anchor="middle" style="font-size:12px;font-family:sans-serif;" y="6" transform="translate(540 178)" fill="#6E7079">12ms</text>
<path d="M100 139l31.4 0l0 25.3l-31.4 0Z" fill="#5470c6"></path>
<path d="M100 102.4l151.4 0l0 25.3l-151.4 0Z" fill="#5470c6"></path>
<path d="M100 65.7l373 0l0 25.3l-373 0Z" fill="#5470c6"></path>
<text dominant-baseline="central" text-anchor="start" style="font-size:12px;font-family:sans-serif;" transform="translate(136.437 151.6667)" fill="#333" stroke="rgb(255,255,255)" stroke-width="2" paint-order="stroke" stroke-miterlimit="2">0.86</text>
<text dominant-baseline="central" text-anchor="start" style="font-size:12px;font-family:sans-serif;" transform="translate(256.449 115)" fill="#333" stroke="rgb(255,255,255)" stroke-width="2" paint-order="stroke" stroke-miterlimit="2">4.13</text>
<text dominant-baseline="central" text-anchor="start" style="font-size:12px;font-family:sans-serif;" transform="translate(478.0115 78.3333)" fill="#333" stroke="rgb(255,255,255)" stroke-width="2" paint-order="stroke" stroke-miterlimit="2">10.17</text>
<path d="M-5 -5l10 0l0 10l-10 0Z" transform="translate(300 235)" fill="rgb(0,0,0)" fill-opacity="0" stroke="#ccc" stroke-width="0"></path>
<path d="M-19.6 -5l39.2 0l0 28l-39.2 0Z" transform="translate(300 5)" fill="rgb(0,0,0)" fill-opacity="0" stroke="#ccc" stroke-width="0"></path>
<text dominant-baseline="central" text-anchor="middle" style="font-size:18px;font-family:sans-serif;font-weight:bold;" y="9" transform="translate(300 5)" fill="#464646">seq</text>
</svg>