<svg width="570" height="340" xmlns="http://www.w3.org/2000/svg" xmlns:xlink="http://www.w3.org/1999/xlink" version="1.1" baseProfile="full" viewBox="0 0 570 340">
<rect width="570" height="340" x="0" y="0" fill="#FFFFFF"></rect>
<path d="M100.5 40L100.5 280" fill="transparent" stroke="#E0E6F1" class="zr0-cls-0"></path>
<path d="M186.5 40L186.5 280" fill="transparent" stroke="#E0E6F1" class="zr0-cls-0"></path>
<path d="M272.5 40L272.5 280" fill="transparent" stroke="#E0E6F1" class="zr0-cls-0"></path>
<path d="M358.5 40L358.5 280" fill="transparent" stroke="#E0E6F1" class="zr0-cls-0"></path>
<path d="M444.5 40L444.5 280" fill="transparent" stroke="#E0E6F1" class="zr0-cls-0"></path>
<path d="M530.5 40L530.5 280" fill="transparent" stroke="#E0E6F1" class="zr0-cls-0"></path>
<path d="M100.5 280L100.5 40" fill="transparent" stroke="#6E7079" stroke-linecap="round" class="zr0-cls-0"></path>
<path d="M100 280.5L95 280.5" fill="transparent" stroke="#6E7079" class="zr0-cls-0"></path>
<path d="M100 200.5L95 200.5" fill="transparent" stroke="#6E7079" class="zr0-cls-0"></path>
<path d="M100 120.5L95 120.5" fill="transparent" stroke="#6E7079" class="zr0-cls-0"></path>
<path d="M100 40.5L95 40.5" fill="transparent" stroke="#6E7079" class="zr0-cls-0"></path>
<text dominant-baseline="central" text-anchor="end" style="font-size:13px;font-family:sans-serif;font-weight:bolder;" transform="translate(92 240)" fill="#666666">chute::spmc</text>
<text dominant-baseline="central" text-anchor="end" style="font-size:13px;font-family:sans-serif;font-weight:bolder;" transform="translate(92 160)" fill="#666666">chute::mpmc</text>
<text dominant-baseline="central" text-anchor="end" style="font-size:13px;font-family:sans-serif;font-weight:bolder;" y="-6.5" transform="translate(92 80)" fill="#666666">tokio::</text>
<text dominant-baseline="central" text-anchor="end" style="font-size:13px;font-family:sans-serif;font-weight:bolder;" y="6.5" transform="translate(92 80)" fill="#666666">broadcast</text>
<text dominant-baseline="central" text-anchor="middle" style="font-size:12px;font-family:sans-serif;" y="6" transform="translate(100 288)" fill="#6E7079">0ms</text>
<text dominant-baseline="central" text-anchor="middle" style="font-size:12px;font-family:sans-serif;" y="6" transform="translate(186 288)" fill="#6E7079">10ms</text>
<text dominant-baseline="central" text-anchor="middle" style="font-size:12px;font-family:sans-serif;" y="6" transform="translate(272 288)" fill="#6E7079">20ms</text>
<text dominant-baseline="central" text-anchor="middle" style="font-size:12px;font-family:sans-serif;" y="6" transform="translate(358 288)" fill="#6E7079">30ms</text>
<text dominant-baseline="central" text-anchor="middle" style="font-size:12px;font-family:sans-serif;" y="6" transform="translate(444 288)" fill="#6E7079">40ms</text>
<text dominant-baseline="central" text-anchor="middle" style="font-size:12px;font-family:sans-serif;" y="6" transform="translate(530 288)" fill="#6E7079">50ms</text>
<path d="M100 207.6l9.2 0l0 14.1l-9.2 0Z" fill="#5470c6" ecmeta_series_index="0" ecmeta_data_index="0" ecmeta_ssr_type="chart" class="zr0-cls-1"></path>
<path d="M100 127.6l33.3 0l0 14.1l-33.3 0Z" fill="#5470c6" ecmeta_series_index="0" ecmeta_data_index="1" ecmeta_ssr_type="chart" class="zr0-cls-1"></path>
<path d="M100 47.6l186.4 0l0 14.1l-186.4 0Z" fill="#5470c6" ecmeta_series_index="0" ecmeta_data_index="2" ecmeta_ssr_type="chart" class="zr0-cls-1"></path>
<path d="M100 224.5l11.5 0l0 14.1l-11.5 0Z" fill="#91cc75" ecmeta_series_index="1" ecmeta_data_index="0" ecmeta_ssr_type="chart" class="zr0-cls-2"></path>
<path d="M100 144.5l40.2 0l0 14.1l-40.2 0Z" fill="#91cc75" ecmeta_series_index="1" ecmeta_data_index="1" ecmeta_ssr_type="chart" class="zr0-cls-2"></path>
<path d="M100 64.5l213.4 0l0 14.1l-213.4 0Z" fill="#91cc75" ecmeta_series_index="1" ecmeta_data_index="2" ecmeta_ssr_type="chart" class="zr0-cls-2"></path>
<path d="M100 241.4l15.1 0l0 14.1l-15.1 0Z" fill="#fac858" ecmeta_series_index="2" ecmeta_data_index="0" ecmeta_ssr_type="chart" class="zr0-cls-3"></path>
<path d="M100 161.4l56.2 0l0 14.1l-56.2 0Z" fill="#fac858" ecmeta_series_index="2" ecmeta_data_index="1" ecmeta_ssr_type="chart" class="zr0-cls-3"></path>
<path d="M100 81.4l262.4 0l0 14.1l-262.4 0Z" fill="#fac858" ecmeta_series_index="2" ecmeta_data_index="2" ecmeta_ssr_type="chart" class="zr0-cls-3"></path>
<path d="M100 258.3l18.1 0l0 14.1l-18.1 0Z" fill="#ee6666" ecmeta_series_index="3" ecmeta_data_index="0" ecmeta_ssr_type="chart" class="zr0-cls-4"></path>
<path d="M100 178.3l61.3 0l0 14.1l-61.3 0Z" fill="#ee6666" ecmeta_series_index="3" ecmeta_data_index="1" ecmeta_ssr_type="chart" class="zr0-cls-4"></path>
<path d="M100 98.3l357.8 0l0 14.1l-357.8 0Z" fill="#ee6666" ecmeta_series_index="3" ecmeta_data_index="2" ecmeta_ssr_type="chart" class="zr0-cls-4"></path>
<text dominant-baseline="central" text-anchor="start" style="font-size:11px;font-family:monospace;font-weight:bold;" transform="translate(114.2091 214.6435)" fill="#333" stroke="rgb(255,255,255)" stroke-width="2" paint-order="stroke" stroke-miterlimit="2">1.07</text>
<text dominant-baseline="central" text-anchor="start" style="font-size:11px;font-family:monospace;font-weight:bold;" transform="translate(138.2838 134.6435)" fill="#333" stroke="rgb(255,255,255)" stroke-width="2" paint-order="stroke" stroke-miterlimit="2">3.87</text>
<text dominant-baseline="central" text-anchor="start" style="font-size:11px;font-family:monospace;font-weight:bold;" transform="translate(291.3752 54.6435)" fill="#333" stroke="rgb(255,255,255)" stroke-width="2" paint-order="stroke" stroke-miterlimit="2">21.67</text>
<text dominant-baseline="central" text-anchor="start" style="font-size:11px;font-family:monospace;font-weight:bold;" transform="translate(116.5364 231.5478)" fill="#333" stroke="rgb(255,255,255)" stroke-width="2" paint-order="stroke" stroke-miterlimit="2">1.34</text>
<text dominant-baseline="central" text-anchor="start" style="font-size:11px;font-family:monospace;font-weight:bold;" transform="translate(145.1914 151.5478)" fill="#333" stroke="rgb(255,255,255)" stroke-width="2" paint-order="stroke" stroke-miterlimit="2">4.67</text>
<text dominant-baseline="central" text-anchor="start" style="font-size:11px;font-family:monospace;font-weight:bold;" transform="translate(318.395 71.5478)" fill="#333" stroke="rgb(255,255,255)" stroke-width="2" paint-order="stroke" stroke-miterlimit="2">24.81</text>
<text dominant-baseline="central" text-anchor="start" style="font-size:11px;font-family:monospace;font-weight:bold;" transform="translate(120.0809 248.4522)" fill="#333" stroke="rgb(255,255,255)" stroke-width="2" paint-order="stroke" stroke-miterlimit="2">1.75</text>
<text dominant-baseline="central" text-anchor="start" style="font-size:11px;font-family:monospace;font-weight:bold;" transform="translate(161.1667 168.4522)" fill="#333" stroke="rgb(255,255,255)" stroke-width="2" paint-order="stroke" stroke-miterlimit="2">6.53</text>
<text dominant-baseline="central" text-anchor="start" style="font-size:11px;font-family:monospace;font-weight:bold;" transform="translate(367.4152 88.4522)" fill="#333" stroke="rgb(255,255,255)" stroke-width="2" paint-order="stroke" stroke-miterlimit="2">30.51</text>
<text dominant-baseline="central" text-anchor="start" style="font-size:11px;font-family:monospace;font-weight:bold;" transform="translate(123.0859 265.3565)" fill="#333" stroke="rgb(255,255,255)" stroke-width="2" paint-order="stroke" stroke-miterlimit="2">2.10</text>
<text dominant-baseline="central" text-anchor="start" style="font-size:11px;font-family:monospace;font-weight:bold;" transform="translate(166.338 185.3565)" fill="#333" stroke="rgb(255,255,255)" stroke-width="2" paint-order="stroke" stroke-miterlimit="2">7.13</text>
<text dominant-baseline="central" text-anchor="start" style="font-size:11px;font-family:monospace;font-weight:bold;" transform="translate(462.8327 105.3565)" fill="#333" stroke="rgb(255,255,255)" stroke-width="2" paint-order="stroke" stroke-miterlimit="2">41.61</text>
<path d="M-5 -5l363.5 0l0 24l-363.5 0Z" transform="translate(108.24 321)" fill="rgb(0,0,0)" fill-opacity="0" stroke="#ccc" stroke-width="0" class="zr0-cls-0"></path>
<path d="M3.5 0L21.5 0A3.5 3.5 0 0 1 25 3.5L25 10.5A3.5 3.5 0 0 1 21.5 14L3.5 14A3.5 3.5 0 0 1 0 10.5L0 3.5A3.5 3.5 0 0 1 3.5 0" transform="translate(108.24 321)" fill="#5470c6" ecmeta_series_index="0" ecmeta_data_index="0" ecmeta_ssr_type="legend" ecmeta_silent="true" class="zr0-cls-0"></path>
<text dominant-baseline="central" text-anchor="start" style="font-size:12px;font-family:sans-serif;" xml:space="preserve" x="30" y="7" transform="translate(108.24 321)" fill="#333">1 readers</text>
<path d="M0 0l80.9 0l0 14l-80.9 0Z" transform="translate(108.24 321)" fill="transparent" ecmeta_series_index="0" ecmeta_data_index="0" ecmeta_ssr_type="legend" class="zr0-cls-5"></path>
<path d="M3.5 0L21.5 0A3.5 3.5 0 0 1 25 3.5L25 10.5A3.5 3.5 0 0 1 21.5 14L3.5 14A3.5 3.5 0 0 1 0 10.5L0 3.5A3.5 3.5 0 0 1 3.5 0" transform="translate(199.12 321)" fill="#91cc75" ecmeta_series_index="1" ecmeta_data_index="1" ecmeta_ssr_type="legend" ecmeta_silent="true" class="zr0-cls-0"></path>
<text dominant-baseline="central" text-anchor="start" style="font-size:12px;font-family:sans-serif;" xml:space="preserve" x="30" y="7" transform="translate(199.12 321)" fill="#333">2 readers</text>
<path d="M0 0l80.9 0l0 14l-80.9 0Z" transform="translate(199.12 321)" fill="transparent" ecmeta_series_index="1" ecmeta_data_index="1" ecmeta_ssr_type="legend" class="zr0-cls-5"></path>
<path d="M3.5 0L21.5 0A3.5 3.5 0 0 1 25 3.5L25 10.5A3.5 3.5 0 0 1 21.5 14L3.5 14A3.5 3.5 0 0 1 0 10.5L0 3.5A3.5 3.5 0 0 1 3.5 0" transform="translate(290 321)" fill="#fac858" ecmeta_series_index="2" ecmeta_data_index="2" ecmeta_ssr_type="legend" ecmeta_silent="true" class="zr0-cls-0"></path>
<text dominant-baseline="central" text-anchor="start" style="font-size:12px;font-family:sans-serif;" xml:space="preserve" x="30" y="7" transform="translate(290 321)" fill="#333">4 readers</text>
<path d="M0 0l80.9 0l0 14l-80.9 0Z" transform="translate(290 321)" fill="transparent" ecmeta_series_index="2" ecmeta_data_index="2" ecmeta_ssr_type="legend" class="zr0-cls-5"></path>
<path d="M3.5 0L21.5 0A3.5 3.5 0 0 1 25 3.5L25 10.5A3.5 3.5 0 0 1 21.5 14L3.5 14A3.5 3.5 0 0 1 0 10.5L0 3.5A3.5 3.5 0 0 1 3.5 0" transform="translate(380.88 321)" fill="#ee6666" ecmeta_series_index="3" ecmeta_data_index="3" ecmeta_ssr_type="legend" ecmeta_silent="true" class="zr0-cls-0"></path>
<text dominant-baseline="central" text-anchor="start" style="font-size:12px;font-family:sans-serif;" xml:space="preserve" x="30" y="7" transform="translate(380.88 321)" fill="#333">8 readers</text>
<path d="M0 0l80.9 0l0 14l-80.9 0Z" transform="translate(380.88 321)" fill="transparent" ecmeta_series_index="3" ecmeta_data_index="3" ecmeta_ssr_type="legend" class="zr0-cls-5"></path>
<path d="M-68.7 -5l137.4 0l0 28l-137.4 0Z" transform="translate(285 5)" fill="rgb(0,0,0)" fill-opacity="0" stroke="#ccc" stroke-width="0" class="zr0-cls-0"></path>
<text dominant-baseline="central" text-anchor="middle" style="font-size:18px;font-family:sans-serif;font-weight:bold;" xml:space="preserve" y="9" transform="translate(285 5)" fill="#464646">broadcast spmc</text>
<style ><![CDATA[
.zr0-cls-0:hover {
pointer-events:none;
}
.zr0-cls-1:hover {
cursor:pointer;
fill:rgba(92,123,217,1);
}
.zr0-cls-2:hover {
cursor:pointer;
fill:rgba(159,224,128,1);
}
.zr0-cls-3:hover {
cursor:pointer;
fill:rgba(255,220,96,1);
}
.zr0-cls-4:hover {
cursor:pointer;
fill:rgba(255,112,112,1);
}
.zr0-cls-5:hover {
cursor:pointer;
fill:rgba(0,0,0,0);
}

]]>

</style>
</svg>