<svg width="1000" height="220" xmlns="http://www.w3.org/2000/svg" xmlns:xlink="http://www.w3.org/1999/xlink" version="1.1" baseProfile="full" viewBox="0 0 1000 220">
<rect width="1000" height="220" x="0" y="0" id="0" fill="none"></rect>
<path d="M100.5 60L100.5 150" fill="none" stroke="#E0E6F1"></path>
<path d="M233.5 60L233.5 150" fill="none" stroke="#E0E6F1"></path>
<path d="M366.5 60L366.5 150" fill="none" stroke="#E0E6F1"></path>
<path d="M500.5 60L500.5 150" fill="none" stroke="#E0E6F1"></path>
<path d="M633.5 60L633.5 150" fill="none" stroke="#E0E6F1"></path>
<path d="M766.5 60L766.5 150" fill="none" stroke="#E0E6F1"></path>
<path d="M900.5 60L900.5 150" fill="none" stroke="#E0E6F1"></path>
<path d="M100.5 150L100.5 60" fill="none" stroke="#6E7079" stroke-linecap="round"></path>
<path d="M100 150.5L95 150.5" fill="none" stroke="#6E7079"></path>
<path d="M100 120.5L95 120.5" fill="none" stroke="#6E7079"></path>
<path d="M100 90.5L95 90.5" fill="none" stroke="#6E7079"></path>
<path d="M100 60.5L95 60.5" fill="none" stroke="#6E7079"></path>
<text dominant-baseline="central" text-anchor="end" style="font-size:12px;font-family:sans-serif;" transform="translate(92 135)" fill="#6E7079">chute::spmc</text>
<text dominant-baseline="central" text-anchor="end" style="font-size:12px;font-family:sans-serif;" transform="translate(92 105)" fill="#6E7079">chute::mpmc</text>
<text dominant-baseline="central" text-anchor="end" style="font-size:12px;font-family:sans-serif;" y="-6" transform="translate(92 75)" fill="#6E7079">crossbeam</text>
<text dominant-baseline="central" text-anchor="end" style="font-size:12px;font-family:sans-serif;" y="6" transform="translate(92 75)" fill="#6E7079">(unbounded)</text>
<text dominant-baseline="central" text-anchor="middle" style="font-size:12px;font-family:sans-serif;" y="6" transform="translate(100 158)" fill="#6E7079">0ms</text>
<text dominant-baseline="central" text-anchor="middle" style="font-size:12px;font-family:sans-serif;" y="6" transform="translate(233.3333 158)" fill="#6E7079">1ms</text>
<text dominant-baseline="central" text-anchor="middle" style="font-size:12px;font-family:sans-serif;" y="6" transform="translate(366.6667 158)" fill="#6E7079">2ms</text>
<text dominant-baseline="central" text-anchor="middle" style="font-size:12px;font-family:sans-serif;" y="6" transform="translate(500 158)" fill="#6E7079">3ms</text>
<text dominant-baseline="central" text-anchor="middle" style="font-size:12px;font-family:sans-serif;" y="6" transform="translate(633.3333 158)" fill="#6E7079">4ms</text>
<text dominant-baseline="central" text-anchor="middle" style="font-size:12px;font-family:sans-serif;" y="6" transform="translate(766.6667 158)" fill="#6E7079">5ms</text>
<text dominant-baseline="central" text-anchor="middle" style="font-size:12px;font-family:sans-serif;" y="6" transform="translate(900 158)" fill="#6E7079">6ms</text>
<path d="M100 124.7l173.1 0l0 20.7l-173.1 0Z" fill="#5470c6"></path>
<path d="M100 94.7l683.5 0l0 20.7l-683.5 0Z" fill="#5470c6"></path>
<path d="M100 64.7l748.2 0l0 20.7l-748.2 0Z" fill="#5470c6"></path>
<text dominant-baseline="central" text-anchor="end" style="font-size:12px;font-family:sans-serif;" transform="translate(268.0563 135)" fill="#eee" stroke="#5470c6" stroke-width="2" paint-order="stroke" stroke-miterlimit="2">1.30ms</text>
<text dominant-baseline="central" text-anchor="end" style="font-size:12px;font-family:sans-serif;" transform="translate(778.5363 105)" fill="#eee" stroke="#5470c6" stroke-width="2" paint-order="stroke" stroke-miterlimit="2">5.13ms</text>
<text dominant-baseline="central" text-anchor="end" style="font-size:12px;font-family:sans-serif;" transform="translate(843.18 75)" fill="#eee" stroke="#5470c6" stroke-width="2" paint-order="stroke" stroke-miterlimit="2">5.61ms</text>
<path d="M-5 -5l10 0l0 10l-10 0Z" transform="translate(500 215)" fill="rgb(0,0,0)" fill-opacity="0" stroke="#ccc" stroke-width="0"></path>
<path d="M-23.5 -5l47.1 0l0 28l-47.1 0Z" transform="translate(500 5)" fill="rgb(0,0,0)" fill-opacity="0" stroke="#ccc" stroke-width="0"></path>
<text dominant-baseline="central" text-anchor="middle" style="font-size:18px;font-family:sans-serif;font-weight:bold;" y="9" transform="translate(500 5)" fill="#464646">spsc</text>
</svg>